<svg id="Layer_1" data-name="Layer 1" xmlns="http://www.w3.org/2000/svg" viewBox="0 0 36 36"><defs><style>.cls-1{fill:#94a1b2;}</style></defs><title>done</title><g id="surface1"><path class="cls-1" d="M18,2A16,16,0,1,0,34,18,16.017,16.017,0,0,0,18,2Zm0,2.667A13.333,13.333,0,1,1,4.667,18,13.312,13.312,0,0,1,18,4.667Zm5.583,5.416a.729.729,0,0,0-.5.334l-6.541,9.708-3.084-3.042a.684.684,0,0,0-1.041-.166l-1.209,1.208a1.012,1.012,0,0,0,0,1.208L15.875,24a2.42,2.42,0,0,0,1.042.417,1.205,1.205,0,0,0,.958-.542l8-11.75c.266-.4.115-.776-.417-1.042l-1.333-.958A.965.965,0,0,0,23.583,10.083Z"/></g></svg>